<svg width="18" height="18" viewBox="0 0 18 18" fill="none" xmlns="http://www.w3.org/2000/svg">
<path d="M2.41425 3.21146C2.36195 3.15916 2.32047 3.09707 2.29216 3.02874C2.26386 2.96041 2.24929 2.88717 2.24929 2.81321C2.24929 2.73925 2.26386 2.66601 2.29216 2.59768C2.32047 2.52935 2.36195 2.46726 2.41425 2.41496C2.46655 2.36266 2.52864 2.32118 2.59697 2.29287C2.6653 2.26457 2.73854 2.25 2.8125 2.25C2.88646 2.25 2.9597 2.26457 3.02803 2.29287C3.09636 2.32118 3.15845 2.36266 3.21075 2.41496L9 8.20534L14.7893 2.41496C14.8415 2.36266 14.9036 2.32118 14.972 2.29287C15.0403 2.26457 15.1135 2.25 15.1875 2.25C15.2615 2.25 15.3347 2.26457 15.403 2.29287C15.4714 2.32118 15.5335 2.36266 15.5858 2.41496C15.6381 2.46726 15.6795 2.52935 15.7078 2.59768C15.7361 2.66601 15.7507 2.73925 15.7507 2.81321C15.7507 2.88717 15.7361 2.96041 15.7078 3.02874C15.6795 3.09707 15.6381 3.15916 15.5858 3.21146L9.79538 9.00071L15.5858 14.79C15.6381 14.8423 15.6795 14.9043 15.7078 14.9727C15.7361 15.041 15.7507 15.1142 15.7507 15.1882C15.7507 15.2622 15.7361 15.3354 15.7078 15.4037C15.6795 15.4721 15.6381 15.5342 15.5858 15.5865C15.5335 15.6388 15.4714 15.6802 15.403 15.7085C15.3347 15.7369 15.2615 15.7514 15.1875 15.7514C15.1135 15.7514 15.0403 15.7369 14.972 15.7085C14.9036 15.6802 14.8415 15.6388 14.7893 15.5865L9 9.79608L3.21075 15.5865C3.15845 15.6388 3.09636 15.6802 3.02803 15.7085C2.9597 15.7369 2.88646 15.7514 2.8125 15.7514C2.73854 15.7514 2.6653 15.7369 2.59697 15.7085C2.52864 15.6802 2.46655 15.6388 2.41425 15.5865C2.36195 15.5342 2.32047 15.4721 2.29216 15.4037C2.26386 15.3354 2.24929 15.2622 2.24929 15.1882C2.24929 15.1142 2.26386 15.041 2.29216 14.9727C2.32047 14.9043 2.36195 14.8423 2.41425 14.79L8.20463 9.00071L2.41425 3.21146Z" fill="#A7A7A7"/>
</svg>
