<svg width="22" height="22" viewBox="0 0 22 22" fill="none" xmlns="http://www.w3.org/2000/svg">
<path d="M21.3153 2.66804C21.4437 2.79691 21.5159 2.97145 21.5159 3.15342C21.5159 3.33538 21.4437 3.50992 21.3153 3.63879L19.8811 5.07429L17.1311 2.32429L18.5653 0.888791C18.6942 0.759904 18.869 0.6875 19.0513 0.6875C19.2336 0.6875 19.4085 0.759904 19.5374 0.888791L21.3153 2.66667V2.66804ZM18.909 6.04504L16.159 3.29504L6.79113 12.6643C6.71545 12.74 6.65848 12.8322 6.62476 12.9338L5.51788 16.253C5.49781 16.3136 5.49496 16.3785 5.50965 16.4405C5.52434 16.5025 5.556 16.5593 5.60108 16.6043C5.64616 16.6494 5.70289 16.6811 5.76493 16.6958C5.82697 16.7105 5.89187 16.7076 5.95238 16.6875L9.27163 15.5807C9.37306 15.5473 9.46533 15.4908 9.54113 15.4157L18.909 6.04504Z" fill="#015C61"/>
<path fill-rule="evenodd" clip-rule="evenodd" d="M1.375 18.5625C1.375 19.1095 1.5923 19.6341 1.97909 20.0209C2.36589 20.4077 2.89049 20.625 3.4375 20.625H18.5625C19.1095 20.625 19.6341 20.4077 20.0209 20.0209C20.4077 19.6341 20.625 19.1095 20.625 18.5625V10.3125C20.625 10.1302 20.5526 9.9553 20.4236 9.82636C20.2947 9.69743 20.1198 9.625 19.9375 9.625C19.7552 9.625 19.5803 9.69743 19.4514 9.82636C19.3224 9.9553 19.25 10.1302 19.25 10.3125V18.5625C19.25 18.7448 19.1776 18.9197 19.0486 19.0486C18.9197 19.1776 18.7448 19.25 18.5625 19.25H3.4375C3.25516 19.25 3.0803 19.1776 2.95136 19.0486C2.82243 18.9197 2.75 18.7448 2.75 18.5625V3.4375C2.75 3.25516 2.82243 3.0803 2.95136 2.95136C3.0803 2.82243 3.25516 2.75 3.4375 2.75H12.375C12.5573 2.75 12.7322 2.67757 12.8611 2.54864C12.9901 2.4197 13.0625 2.24484 13.0625 2.0625C13.0625 1.88016 12.9901 1.7053 12.8611 1.57636C12.7322 1.44743 12.5573 1.375 12.375 1.375H3.4375C2.89049 1.375 2.36589 1.5923 1.97909 1.97909C1.5923 2.36589 1.375 2.89049 1.375 3.4375V18.5625Z" fill="#015C61"/>
</svg>
