<svg width="22" height="22" viewBox="0 0 22 22" fill="none" xmlns="http://www.w3.org/2000/svg">
<g clip-path="url(#clip0_16_68730)">
<path d="M21.979 11.4614C21.8696 11.8421 21.6633 12.188 21.3802 12.4654C21.0118 12.8136 20.5252 13.0097 20.018 13.0146H19.6679V13.2699C19.6679 15.3689 19.6679 17.4748 19.6679 19.5877C19.6794 20.1303 19.5026 20.6602 19.1675 21.0875C18.8324 21.5147 18.3597 21.8129 17.8295 21.9315C17.633 21.9753 17.4321 21.9964 17.2307 21.9945C16.1137 21.9945 14.9931 21.9945 13.8761 21.9945C13.7754 22.0075 13.673 21.9974 13.5767 21.9648C13.4805 21.9322 13.3931 21.878 13.3211 21.8064C13.2491 21.7348 13.1944 21.6477 13.1613 21.5518C13.1283 21.4558 13.1176 21.3535 13.1302 21.2528C13.1302 19.6052 13.1127 17.954 13.1302 16.3064C13.1428 16.1422 13.1197 15.9773 13.0626 15.8229C13.0055 15.6685 12.9157 15.5282 12.7993 15.4116C12.683 15.2951 12.5428 15.205 12.3884 15.1475C12.234 15.09 12.069 15.0665 11.9046 15.0785C11.3094 15.0995 10.7106 15.0995 10.1188 15.0785C9.95247 15.0659 9.78538 15.0894 9.62901 15.1474C9.47264 15.2053 9.33068 15.2965 9.21291 15.4145C9.09513 15.5324 9.00432 15.6745 8.94671 15.8309C8.8891 15.9873 8.86607 16.1543 8.87919 16.3204C8.9072 17.947 8.87919 19.5737 8.87919 21.2004C8.87919 21.7566 8.63757 21.9945 8.0773 21.9945H4.80672C4.4818 22.0057 4.15804 21.95 3.85557 21.8309C3.55309 21.7119 3.27837 21.5319 3.04848 21.3022C2.81858 21.0726 2.63843 20.7981 2.51923 20.4959C2.40002 20.1938 2.3443 19.8703 2.35554 19.5457C2.35554 17.4678 2.35554 15.3864 2.35554 13.3084V13.0461C2.10692 13.0251 1.86881 13.0251 1.65521 12.9831C1.2982 12.9259 0.964458 12.7696 0.692041 12.5321C0.419623 12.2946 0.219494 11.9854 0.114468 11.6398C-0.0061333 11.3031 -0.0320276 10.9399 0.0395887 10.5896C0.111205 10.2392 0.277592 9.91524 0.520664 9.65279C0.576691 9.58983 0.636223 9.52686 0.699254 9.46739C3.63133 6.54056 6.56458 3.61372 9.49899 0.686889C9.722 0.444069 9.99911 0.257118 10.3079 0.14117C10.66 0.000852553 11.0449 -0.0358294 11.4173 0.0354595C11.7896 0.106748 12.1337 0.283026 12.4089 0.543462C12.7801 0.893282 13.1407 1.2676 13.5084 1.63491C16.0553 4.17927 18.6022 6.7213 21.1491 9.261C21.5384 9.60181 21.8317 10.0384 22 10.5273L21.979 11.4614ZM7.59407 20.7036V20.4273C7.59407 18.972 7.59407 17.5168 7.59407 16.0615C7.60471 15.4998 7.82249 14.9618 8.20568 14.5506C8.58887 14.1393 9.1105 13.8839 9.67057 13.8332C10.5495 13.7737 11.4214 13.8332 12.3143 13.8332C12.3864 13.8368 12.4579 13.8473 12.5279 13.8646C13.0673 13.9768 13.55 14.2747 13.8918 14.7063C14.2336 15.1379 14.4127 15.6758 14.3978 16.2259C14.3978 17.6252 14.3978 19.049 14.3978 20.4588V20.7176H17.1187C17.9275 20.7176 18.3512 20.2943 18.3512 19.4898C18.3512 17.1576 18.3512 14.8138 18.3512 12.4584C18.3413 12.3629 18.3524 12.2665 18.3837 12.1758C18.4151 12.0851 18.4659 12.0023 18.5326 11.9333C18.5993 11.8643 18.6804 11.8108 18.77 11.7764C18.8597 11.742 18.9558 11.7276 19.0516 11.7342C19.3597 11.7342 19.6714 11.7342 19.9795 11.7342C20.1414 11.7382 20.2997 11.686 20.4274 11.5865C20.5551 11.487 20.6443 11.3463 20.6799 11.1885C20.7145 11.0305 20.7021 10.8659 20.6443 10.7148C20.5864 10.5638 20.4856 10.433 20.3542 10.3384C17.4455 7.43726 14.5391 4.53492 11.635 1.63141C11.1658 1.16265 10.7981 1.16265 10.3289 1.63141L2.55164 9.40092L1.50113 10.4504C1.38578 10.5509 1.30656 10.6863 1.27558 10.8361C1.24459 10.9858 1.26355 11.1415 1.32955 11.2795C1.38368 11.4184 1.48081 11.5364 1.60679 11.6163C1.73277 11.6963 1.881 11.7339 2.02989 11.7237H2.80376C3.40255 11.7237 3.63016 11.9511 3.63016 12.5563C3.63016 14.9001 3.63016 17.2439 3.63016 19.5877C3.61379 19.8633 3.70679 20.1342 3.88901 20.3418C4.07122 20.5494 4.32798 20.6769 4.60363 20.6966C5.59811 20.7211 6.57858 20.7036 7.59407 20.7036Z" fill="#015C61"/>
</g>
<defs>
<clipPath id="clip0_16_68730">
<rect width="22" height="22" fill="white"/>
</clipPath>
</defs>
</svg>
