<svg width="14" height="14" viewBox="0 0 14 14" fill="none" xmlns="http://www.w3.org/2000/svg">
<path fill-rule="evenodd" clip-rule="evenodd" d="M9.93476 12.559C9.89412 12.5997 9.84584 12.632 9.79269 12.6541C9.73954 12.6761 9.68256 12.6875 9.62501 12.6875C9.56747 12.6875 9.51048 12.6761 9.45733 12.6541C9.40418 12.632 9.3559 12.5997 9.31526 12.559L4.06526 7.30897C4.02452 7.26833 3.99219 7.22005 3.97014 7.1669C3.94808 7.11375 3.93673 7.05676 3.93673 6.99922C3.93673 6.94167 3.94808 6.88469 3.97014 6.83154C3.99219 6.77839 4.02452 6.73011 4.06526 6.68947L9.31526 1.43947C9.39741 1.35732 9.50883 1.31117 9.62501 1.31117C9.74119 1.31117 9.85261 1.35732 9.93476 1.43947C10.0169 1.52162 10.0631 1.63304 10.0631 1.74922C10.0631 1.8654 10.0169 1.97682 9.93476 2.05897L4.99364 6.99922L9.93476 11.9395C9.9755 11.9801 10.0078 12.0284 10.0299 12.0815C10.0519 12.1347 10.0633 12.1917 10.0633 12.2492C10.0633 12.3068 10.0519 12.3637 10.0299 12.4169C10.0078 12.47 9.9755 12.5183 9.93476 12.559Z" fill="#A7A7A7"/>
</svg>
