<svg width="22" height="22" viewBox="0 0 22 22" fill="none" xmlns="http://www.w3.org/2000/svg">
<path d="M9.76135 0V11.1498H11.3542V0H9.76135Z" fill="#015C61"/>
<path d="M2.5934 12.4408C2.59301 11.0184 2.97368 9.62179 3.69582 8.39629C4.41796 7.17078 5.4552 6.16109 6.6997 5.47221L5.92718 4.08008C4.08034 5.10278 2.6241 6.7082 1.7858 8.64572C0.947494 10.5832 0.774309 12.7438 1.29328 14.7901C1.81225 16.8364 2.99417 18.6533 4.65452 19.9571C6.31487 21.261 8.3602 21.9784 10.4712 21.9973C12.5822 22.0162 14.6401 21.3357 16.3236 20.0618C18.0071 18.788 19.2214 16.9926 19.777 14.956C20.3326 12.9193 20.1982 10.756 19.3948 8.80372C18.5914 6.85147 17.1642 5.22017 15.336 4.1645L14.538 5.54229C15.7489 6.24104 16.7545 7.24624 17.4538 8.45684C18.1531 9.66744 18.5214 11.0408 18.5217 12.4389C18.5219 13.8369 18.1542 15.2104 17.4553 16.4213C16.7565 17.6321 15.7512 18.6377 14.5406 19.3369C13.3299 20.0361 11.9566 20.4043 10.5585 20.4045C9.16046 20.4046 7.78699 20.0368 6.57617 19.3379C5.36535 18.639 4.35984 17.6337 3.66071 16.423C2.96159 15.2123 2.59348 13.8389 2.5934 12.4408Z" fill="#015C61"/>
</svg>
