<svg width="18" height="28" viewBox="0 0 18 28" xmlns="http://www.w3.org/2000/svg">
<path d="M8.09801 27.7273V0.454544H9.84517V27.7273H8.09801ZM12.7322 9.45668C12.647 8.5973 12.2813 7.92969 11.6349 7.45383C10.9886 6.97798 10.1115 6.74006 9.00355 6.74006C8.25071 6.74006 7.61506 6.84659 7.09659 7.05966C6.57813 7.26562 6.1804 7.55327 5.90341 7.92258C5.63352 8.2919 5.49858 8.71094 5.49858 9.17969C5.48438 9.57031 5.56605 9.91122 5.74361 10.2024C5.92827 10.4936 6.1804 10.7457 6.5 10.9588C6.8196 11.1648 7.18892 11.3459 7.60795 11.5021C8.02699 11.6513 8.47443 11.7791 8.95028 11.8857L10.9105 12.3544C11.8622 12.5675 12.7358 12.8516 13.5312 13.2067C14.3267 13.5618 15.0156 13.9986 15.598 14.517C16.1804 15.0355 16.6314 15.6463 16.951 16.3494C17.2777 17.0526 17.4446 17.8587 17.4517 18.7678C17.4446 20.103 17.1037 21.2607 16.429 22.2408C15.7614 23.2138 14.7955 23.9702 13.5312 24.5099C12.2741 25.0426 10.7578 25.3089 8.98224 25.3089C7.22088 25.3089 5.68679 25.0391 4.37997 24.4993C3.08026 23.9595 2.06463 23.1605 1.3331 22.1023C0.608665 21.0369 0.228693 19.7195 0.193182 18.1499H4.65696C4.70668 18.8814 4.91619 19.4922 5.28551 19.9822C5.66193 20.4652 6.16264 20.831 6.78764 21.0795C7.41974 21.321 8.13352 21.4418 8.92898 21.4418C9.71023 21.4418 10.3885 21.3281 10.9638 21.1009C11.5462 20.8736 11.9972 20.5575 12.3168 20.1527C12.6364 19.7479 12.7962 19.2827 12.7962 18.7571C12.7962 18.267 12.6506 17.8551 12.3594 17.5213C12.0753 17.1875 11.6563 16.9034 11.1023 16.669C10.5554 16.4347 9.88423 16.2216 9.08878 16.0298L6.71307 15.4332C4.87358 14.9858 3.42116 14.2862 2.35582 13.3345C1.29048 12.3828 0.761364 11.1009 0.768466 9.48864C0.761364 8.16761 1.11293 7.01349 1.82315 6.02628C2.54048 5.03906 3.52415 4.26847 4.77415 3.71449C6.02415 3.16051 7.4446 2.88352 9.03551 2.88352C10.6548 2.88352 12.0682 3.16051 13.2756 3.71449C14.4901 4.26847 15.4347 5.03906 16.1094 6.02628C16.7841 7.01349 17.1321 8.15696 17.1534 9.45668H12.7322Z"/>
</svg>
