<svg width="16" height="4" viewBox="0 0 16 4" fill="none" xmlns="http://www.w3.org/2000/svg">
<path d="M1.84615 4C1.35652 4 0.886947 3.78929 0.540726 3.41421C0.194505 3.03914 0 2.53043 0 2C0 1.46957 0.194505 0.960859 0.540726 0.585786C0.886947 0.210713 1.35652 0 1.84615 0C2.33578 0 2.80536 0.210713 3.15158 0.585786C3.4978 0.960859 3.69231 1.46957 3.69231 2C3.69231 2.53043 3.4978 3.03914 3.15158 3.41421C2.80536 3.78929 2.33578 4 1.84615 4ZM8 4C7.51037 4 7.04079 3.78929 6.69457 3.41421C6.34835 3.03914 6.15385 2.53043 6.15385 2C6.15385 1.46957 6.34835 0.960859 6.69457 0.585786C7.04079 0.210713 7.51037 0 8 0C8.48963 0 8.95921 0.210713 9.30543 0.585786C9.65165 0.960859 9.84615 1.46957 9.84615 2C9.84615 2.53043 9.65165 3.03914 9.30543 3.41421C8.95921 3.78929 8.48963 4 8 4ZM14.1538 4C13.6642 4 13.1946 3.78929 12.8484 3.41421C12.5022 3.03914 12.3077 2.53043 12.3077 2C12.3077 1.46957 12.5022 0.960859 12.8484 0.585786C13.1946 0.210713 13.6642 0 14.1538 0C14.6435 0 15.1131 0.210713 15.4593 0.585786C15.8055 0.960859 16 1.46957 16 2C16 2.53043 15.8055 3.03914 15.4593 3.41421C15.1131 3.78929 14.6435 4 14.1538 4Z" fill="#BFBFBF"/>
</svg>
