<svg width="20" height="22" viewBox="0 0 20 22" fill="none" xmlns="http://www.w3.org/2000/svg">
<path d="M10 22C10.7578 22 11.4845 21.7103 12.0203 21.1946C12.5561 20.6789 12.8571 19.9795 12.8571 19.2501H7.14286C7.14286 19.9795 7.44388 20.6789 7.97969 21.1946C8.51551 21.7103 9.24224 22 10 22ZM10 2.63831L8.86143 2.85967C7.56994 3.11293 6.40904 3.78789 5.57522 4.7703C4.74139 5.75271 4.28586 6.98223 4.28571 8.25075C4.28571 9.1142 4.09429 11.2715 3.63 13.3957C3.40143 14.4503 3.09286 15.5489 2.68286 16.5003H17.3171C16.9071 15.5489 16.6 14.4517 16.37 13.3957C15.9057 11.2715 15.7143 9.1142 15.7143 8.25075C15.7138 6.98246 15.2581 5.75327 14.4243 4.77114C13.5905 3.78901 12.4298 3.11426 11.1386 2.86105L10 2.63831ZM18.8857 16.5003C19.2043 17.1149 19.5729 17.6016 20 17.8752H0C0.427143 17.6016 0.795714 17.1149 1.11429 16.5003C2.4 14.0254 2.85714 9.46069 2.85714 8.25075C2.85714 4.92343 5.31429 2.14609 8.57857 1.51225C8.55863 1.32107 8.58055 1.12799 8.64291 0.945464C8.70526 0.762939 8.80667 0.595019 8.9406 0.452533C9.07453 0.310047 9.238 0.19616 9.42048 0.118215C9.60295 0.0402708 9.80036 0 10 0C10.1996 0 10.3971 0.0402708 10.5795 0.118215C10.762 0.19616 10.9255 0.310047 11.0594 0.452533C11.1933 0.595019 11.2947 0.762939 11.3571 0.945464C11.4195 1.12799 11.4414 1.32107 11.4214 1.51225C13.0361 1.82834 14.4877 2.6718 15.5303 3.8998C16.573 5.1278 17.1426 6.66488 17.1429 8.25075C17.1429 9.46069 17.6 14.0254 18.8857 16.5003Z" fill="#015C61"/>
</svg>
