<svg width="14" height="14" viewBox="0 0 14 14" fill="none" xmlns="http://www.w3.org/2000/svg">
<path fill-rule="evenodd" clip-rule="evenodd" d="M4.06525 1.44103C4.10589 1.40029 4.15417 1.36796 4.20732 1.34591C4.26048 1.32385 4.31746 1.3125 4.375 1.3125C4.43255 1.3125 4.48953 1.32385 4.54268 1.34591C4.59584 1.36796 4.64411 1.40029 4.68475 1.44103L9.93475 6.69103C9.9755 6.73167 10.0078 6.77995 10.0299 6.8331C10.0519 6.88625 10.0633 6.94323 10.0633 7.00078C10.0633 7.05833 10.0519 7.11531 10.0299 7.16846C10.0078 7.22161 9.9755 7.26989 9.93475 7.31053L4.68475 12.5605C4.6026 12.6427 4.49118 12.6888 4.375 12.6888C4.25882 12.6888 4.1474 12.6427 4.06525 12.5605C3.9831 12.4784 3.93695 12.367 3.93695 12.2508C3.93695 12.1346 3.9831 12.0232 4.06525 11.941L9.00638 7.00078L4.06525 2.06053C4.02451 2.01989 3.99219 1.97161 3.97013 1.91846C3.94807 1.86531 3.93672 1.80833 3.93672 1.75078C3.93672 1.69324 3.94807 1.63625 3.97013 1.5831C3.99219 1.52995 4.02451 1.48167 4.06525 1.44103Z" fill="#A7A7A7"/>
</svg>
