<svg width="22" height="22" viewBox="0 0 22 22" fill="none" xmlns="http://www.w3.org/2000/svg">
<g clip-path="url(#clip0_16_69069)">
<path d="M21.7952 0.203383C21.8922 0.300514 21.9585 0.423999 21.9859 0.558495C22.0133 0.692992 22.0006 0.832575 21.9493 0.959904L13.7981 21.3397C13.7263 21.5192 13.6063 21.6754 13.4515 21.7911C13.2966 21.9068 13.1128 21.9775 12.9204 21.9955C12.7279 22.0134 12.5342 21.9779 12.3606 21.8929C12.187 21.8078 12.0403 21.6766 11.9365 21.5135L7.48478 14.5156L0.48783 10.0634C0.324383 9.95968 0.192756 9.81284 0.107474 9.63906C0.0221914 9.46528 -0.0134311 9.27132 0.00453702 9.07857C0.0225052 8.88582 0.0933655 8.70179 0.209299 8.54677C0.325232 8.39175 0.481732 8.27178 0.661528 8.20009L21.0388 0.0506774C21.1661 -0.00058075 21.3057 -0.0133011 21.4402 0.0140964C21.5747 0.0414939 21.6981 0.107802 21.7952 0.204784V0.203383ZM8.88276 14.1066L12.7503 20.1839L19.3803 3.60773L8.88276 14.1066ZM18.3899 2.61725L1.81578 9.24801L7.89381 13.1147L18.3899 2.61725Z" fill="#EB9717"/>
</g>
<defs>
<clipPath id="clip0_16_69069">
<rect width="22" height="22" fill="white"/>
</clipPath>
</defs>
</svg>
