<svg width="9" height="6" viewBox="0 0 9 6" xmlns="http://www.w3.org/2000/svg">
<path d="M5.01765 0.341249L8.3149 4.11012C8.70402 4.55356 8.38777 5.25 7.79721 5.25L1.20271 5.25C1.07054 5.25011 0.941144 5.21213 0.830009 5.14059C0.718875 5.06905 0.630716 4.967 0.57609 4.84665C0.521464 4.7263 0.502687 4.59275 0.522007 4.462C0.541327 4.33125 0.597926 4.20885 0.685024 4.10944L3.98227 0.341937C4.0468 0.268093 4.12639 0.208909 4.21567 0.168357C4.30496 0.127806 4.4019 0.106825 4.49996 0.106825C4.59803 0.106825 4.69496 0.127806 4.78425 0.168357C4.87354 0.208909 4.95312 0.268093 5.01765 0.341937L5.01765 0.341249Z"/>
</svg>
