<svg width="9" height="6" viewBox="0 0 9 6" xmlns="http://www.w3.org/2000/svg">
<path d="M3.98235 5.65875L0.6851 1.88988C0.295975 1.44644 0.612226 0.75 1.20279 0.75L7.79729 0.750002C7.92946 0.749888 8.05886 0.787874 8.16999 0.859411C8.28113 0.930947 8.36928 1.033 8.42391 1.15335C8.47854 1.2737 8.49731 1.40725 8.47799 1.538C8.45867 1.66875 8.40207 1.79115 8.31498 1.89056L5.01773 5.65806C4.9532 5.73191 4.87361 5.79109 4.78432 5.83164C4.69504 5.87219 4.5981 5.89317 4.50004 5.89317C4.40197 5.89317 4.30504 5.87219 4.21575 5.83164C4.12646 5.79109 4.04688 5.73191 3.98235 5.65806L3.98235 5.65875Z"/>
</svg>
