<svg width="11" height="19" viewBox="0 0 11 19" fill="none" xmlns="http://www.w3.org/2000/svg">
<path d="M4.98235 15.6588L1.6851 11.8899C1.29598 11.4464 1.61223 10.75 2.20279 10.75L8.79729 10.75C8.92946 10.7499 9.05886 10.7879 9.16999 10.8594C9.28113 10.9309 9.36928 11.033 9.42391 11.1534C9.47854 11.2737 9.49731 11.4073 9.47799 11.538C9.45867 11.6687 9.40207 11.7912 9.31498 11.8906L6.01773 15.6581C5.9532 15.7319 5.87361 15.7911 5.78432 15.8316C5.69504 15.8722 5.5981 15.8932 5.50004 15.8932C5.40197 15.8932 5.30504 15.8722 5.21575 15.8316C5.12646 15.7911 5.04688 15.7319 4.98235 15.6581L4.98235 15.6588Z" fill="#A7A7A7"/>
<path d="M6.01765 3.34125L9.3149 7.11012C9.70402 7.55356 9.38777 8.25 8.79721 8.25L2.20271 8.25C2.07054 8.25011 1.94114 8.21213 1.83001 8.14059C1.71887 8.06905 1.63072 7.967 1.57609 7.84665C1.52146 7.7263 1.50269 7.59275 1.52201 7.462C1.54133 7.33125 1.59793 7.20885 1.68502 7.10944L4.98227 3.34194C5.0468 3.26809 5.12639 3.20891 5.21567 3.16836C5.30496 3.12781 5.4019 3.10683 5.49996 3.10683C5.59803 3.10683 5.69496 3.12781 5.78425 3.16836C5.87354 3.20891 5.95312 3.26809 6.01765 3.34194L6.01765 3.34125Z" fill="#A7A7A7"/>
</svg>
