<svg width="22" height="22" viewBox="0 0 22 22" xmlns="http://www.w3.org/2000/svg">
<g clip-path="url(#clip0_16_68673)">
<path d="M22 2.49653V19.5173C22 19.5589 21.9694 19.5978 21.9611 19.6394C21.8825 20.1488 21.6633 20.6262 21.3281 21.0182C20.9929 21.4102 20.5549 21.7012 20.0633 21.8585C19.8854 21.9223 19.6937 21.9528 19.5075 22H2.4826L2.20473 21.9307C1.56541 21.789 0.995596 21.4292 0.593398 20.9132C0.1912 20.3973 -0.0182032 19.7575 0.00124197 19.104V5.56172C0.00124197 4.638 0.00124197 3.71428 0.00124197 2.78779C0.00525215 2.2041 0.191965 1.63625 0.535251 1.16373C0.878538 0.691213 1.36121 0.33767 1.91574 0.152563C2.10191 0.0887622 2.2992 0.0499307 2.49093 0H19.5103C19.5422 0.015656 19.5758 0.0277509 19.6103 0.0360624C20.1225 0.110025 20.6037 0.325271 20.9999 0.657554C21.3961 0.989838 21.6914 1.42595 21.8527 1.91677C21.913 2.10703 21.9621 2.30061 22 2.49653ZM1.29054 15.1234C1.37668 15.0541 1.43226 15.0153 1.48505 14.9709L4.60828 12.3107C5.38631 11.6477 6.2338 11.6394 7.02016 12.2857C7.34805 12.5631 7.67038 12.8405 7.99548 13.0957L9.1792 14.0749C9.22731 13.997 9.28118 13.9228 9.34036 13.853C11.2095 11.9778 13.0814 10.1036 14.9561 8.23023C15.0989 8.07875 15.2615 7.9472 15.4396 7.83912C15.809 7.62439 16.2456 7.55569 16.6633 7.64658C17.081 7.73747 17.4494 7.98134 17.6958 8.33009C18.6406 9.48959 19.5844 10.6509 20.5273 11.8141C20.5718 11.8724 20.6246 11.9251 20.7079 12.0194V11.8169C20.7079 8.85806 20.7079 5.89273 20.7079 2.92093C20.721 2.70346 20.6876 2.4857 20.6098 2.28214C20.5321 2.07858 20.4118 1.89388 20.2569 1.74036C20.1021 1.58683 19.9163 1.468 19.7118 1.39175C19.5074 1.31551 19.289 1.28362 19.0713 1.2982C13.6992 1.2982 8.32152 1.2982 2.9383 1.2982C2.76624 1.2956 2.59451 1.31424 2.42702 1.35368C2.08353 1.44326 1.7821 1.64962 1.57465 1.93723C1.3672 2.22483 1.26673 2.57566 1.29054 2.92926C1.29054 6.91817 1.29054 10.908 1.29054 14.8987V15.1234ZM11.0159 20.7212H19.0935C19.3076 20.7355 19.5223 20.7045 19.7235 20.6303C19.9248 20.5561 20.1081 20.4403 20.2615 20.2906C20.4149 20.1408 20.535 19.9605 20.6138 19.7613C20.6926 19.5621 20.7285 19.3485 20.719 19.1345C20.719 17.5007 20.719 15.8669 20.719 14.233C20.7178 14.1496 20.6896 14.0688 20.6384 14.0028C19.3158 12.3662 17.9885 10.7332 16.6566 9.10402C16.6089 9.04936 16.5505 9.00494 16.4851 8.97347C16.4197 8.942 16.3485 8.92413 16.2759 8.92094C16.1313 8.95036 15.9998 9.02521 15.9008 9.13453C13.852 11.1798 11.8069 13.2261 9.7655 15.2732C9.37649 15.6644 9.09306 15.6782 8.65403 15.3232L6.22269 13.3065C5.90592 13.0291 5.76143 13.0291 5.453 13.3065C4.10441 14.4531 2.75861 15.6006 1.41559 16.749C1.3465 16.8133 1.30473 16.9017 1.29888 16.9958C1.29888 17.7143 1.27943 18.4299 1.29888 19.1456C1.30539 19.3954 1.3611 19.6414 1.46282 19.8696C1.5926 20.1477 1.80476 20.3792 2.07063 20.533C2.33649 20.6868 2.64323 20.7554 2.94941 20.7295L11.0159 20.7212Z" />
<path d="M3.25354 5.5963C3.2535 4.65061 3.62741 3.74311 4.29397 3.07113C4.96054 2.39916 5.86587 2.01703 6.81314 2.00781C7.76459 2.00696 8.67764 2.38237 9.3525 3.05191C10.0274 3.72145 10.4091 4.63059 10.4141 5.5804C10.415 6.52849 10.0389 7.4382 9.36859 8.10979C8.69823 8.78139 7.78833 9.16 6.83861 9.16252C5.88974 9.16337 4.97929 8.78832 4.30715 8.11971C3.635 7.45109 3.25607 6.54355 3.25354 5.5963ZM6.83542 7.67819C7.38728 7.67407 7.91552 7.45403 8.30664 7.06535C8.69777 6.67667 8.92059 6.15036 8.92725 5.59947C8.92396 5.04432 8.70269 4.51262 8.31095 4.11859C7.91922 3.72455 7.3883 3.49965 6.83225 3.49217C6.27571 3.49803 5.74402 3.72306 5.35286 4.11831C4.96171 4.51356 4.74274 5.04704 4.74361 5.60265C4.74781 6.15457 4.97039 6.68246 5.36282 7.07125C5.75526 7.46003 6.28573 7.6782 6.83861 7.67819H6.83542Z" />
</g>
<defs>
<clipPath id="clip0_16_68673">
<rect width="22" height="22"/>
</clipPath>
</defs>
</svg>
